<svg xmlns="http://www.w3.org/2000/svg" viewBox="0 0 512 512" role="img" aria-label="CarLoan.my icon">
  <defs>
    <linearGradient id="bg" x1="0%" y1="0%" x2="100%" y2="100%">
      <stop offset="0%" stop-color="#f7fbff" />
      <stop offset="100%" stop-color="#dcecff" />
    </linearGradient>
    <linearGradient id="accent" x1="0%" y1="0%" x2="100%" y2="100%">
      <stop offset="0%" stop-color="#0a84ff" />
      <stop offset="100%" stop-color="#005fcc" />
    </linearGradient>
  </defs>
  <rect width="512" height="512" rx="124" fill="url(#bg)" />
  <rect x="48" y="48" width="416" height="416" rx="104" fill="white" opacity="0.86" />
  <path
    d="M138 292c8-42 32-74 73-96 22-12 46-18 70-18 47 0 90 19 112 57 13 22 20 45 24 69h-34c-4-18-10-34-19-47-18-28-50-43-84-43-18 0-36 4-53 13-29 15-47 37-56 65h-33Zm26 32h182c21 0 37 16 37 37v18H129v-18c0-21 16-37 35-37Zm11 26c-7 0-12 5-12 11v7h186v-7c0-6-5-11-11-11H175Zm7 58a24 24 0 1 1 0-48 24 24 0 0 1 0 48Zm148 0a24 24 0 1 1 0-48 24 24 0 0 1 0 48Z"
    fill="url(#accent)"
  />
  <path
    d="M284 120c20 0 36 16 36 36s-16 36-36 36-36-16-36-36 16-36 36-36Z"
    fill="#34c759"
    opacity="0.95"
  />
  <text
    x="256"
    y="450"
    fill="#0f172a"
    font-family="Avenir Next, Helvetica Neue, Arial, sans-serif"
    font-size="42"
    font-weight="700"
    text-anchor="middle"
  >
    CarLoan.my
  </text>
</svg>
